<?xml version="1.0" encoding="utf-8"?>
<!-- Generator: Adobe Illustrator 28.0.0, SVG Export Plug-In . SVG Version: 6.00 Build 0)  -->
<svg version="1.1" id="Layer_1" xmlns="http://www.w3.org/2000/svg" xmlns:xlink="http://www.w3.org/1999/xlink" x="0px" y="0px"
	 viewBox="0 0 1240 600" style="enable-background:new 0 0 1240 600;" xml:space="preserve">
<style type="text/css">
	.st0{stroke:#FFFFFF;stroke-miterlimit:10;}
	.st1{fill:#FFF3E9;}
	.st2{fill:#FFFFFF;}
	.st3{fill:#1A2F48;}
	.st4{fill:none;stroke:#FFFFFF;stroke-width:4;stroke-miterlimit:10;}
	.st5{fill:none;stroke:#FFFFFF;stroke-miterlimit:10;}
</style>
<g>
	<path d="M882.02,91.33c-33,0-59.84,26.78-59.84,59.84c0-33.06-26.78-59.84-59.78-59.84c33,0,59.78-26.78,59.78-59.78
		C822.18,64.55,849.02,91.33,882.02,91.33z"/>
	<g>
		<g>
			<g>
				<polygon points="221.63,281.33 221.63,440.83 100.17,354.01 100.17,440.83 52.54,440.83 52.54,281.33 174.67,367.47 
					174.67,281.33 				"/>
				<polygon points="417.72,417.35 417.72,440.83 248.94,440.83 248.94,281.33 417.72,281.33 417.72,304.8 296.8,304.8 
					296.8,349.46 417.35,349.46 417.35,372.93 296.8,372.93 296.8,417.35 				"/>
				<path d="M585.52,342.17v-60.85H441.74v159.5h174.74v-98.65H585.52z M489.36,304.8h60.9v37.37h-60.9V304.8z M568.85,417.35
					h-79.49v-51.7h79.49V417.35z"/>
				<polygon points="813.82,281.33 813.82,440.83 634.73,440.83 634.73,281.33 682.11,281.33 682.11,417.35 758,417.35 758,281.33 
									"/>
				<polygon points="989.47,417.35 989.47,440.83 834.33,440.83 834.33,281.33 881.95,281.33 881.95,417.35 				"/>
				<path d="M1006.14,281.33v159.5h51.03v-67.89h74.07v67.89h52.37v-159.5H1006.14z M1130.09,349.22h-73.4V304.8h73.4V349.22z"/>
			</g>
		</g>
	</g>
	<g>
		<path d="M704.23,567.38L697.96,552h-29l-6.27,15.38h-15.38l29.39-69.06h13.91L720,567.38H704.23z M683.47,516.44l-9.11,22.24
			h18.22L683.47,516.44z"/>
		<path d="M770.45,567.38v-68.57h15.09v68.57H770.45z"/>
		<path d="M953.34,567.38v-27.53h-27.82v27.53h-15.09v-68.57h15.09v27.13h27.82v-27.13h15.09v68.57H953.34z"/>
		<path d="M1082.74,537.5c0,5.23-0.7,9.76-2.11,13.62c-1.4,3.85-3.41,7.07-6.02,9.65c-2.61,2.58-5.78,4.51-9.5,5.78
			c-3.72,1.27-7.87,1.91-12.44,1.91c-9.21,0-16.46-2.55-21.75-7.64s-7.93-12.7-7.93-22.82v-39.18h15.09v38.79
			c0,5.62,1.31,9.84,3.92,12.69c2.61,2.84,6.24,4.26,10.87,4.26c4.64,0,8.26-1.37,10.87-4.11c2.61-2.74,3.92-6.86,3.92-12.34v-39.28
			h15.09V537.5z"/>
		<path d="M1187.46,548.57c0,3.13-0.6,5.88-1.81,8.23c-1.21,2.35-2.94,4.31-5.19,5.88s-4.96,2.74-8.13,3.53
			c-3.17,0.78-6.68,1.18-10.53,1.18h-32.62v-68.57h31.84c7.05,0,12.59,1.6,16.6,4.8c4.02,3.2,6.02,7.51,6.02,12.93v0.2
			c0,1.96-0.25,3.69-0.73,5.19c-0.49,1.5-1.14,2.86-1.96,4.06c-0.82,1.21-1.76,2.27-2.84,3.18c-1.08,0.92-2.24,1.7-3.48,2.35
			c3.98,1.5,7.12,3.54,9.4,6.12c2.29,2.58,3.43,6.16,3.43,10.73V548.57z M1168.65,519.08c0-2.29-0.85-4.03-2.55-5.24
			c-1.7-1.21-4.15-1.81-7.35-1.81h-14.89v14.5h13.91c3.33,0,5.98-0.57,7.93-1.71c1.96-1.14,2.94-2.99,2.94-5.53V519.08z
			 M1172.47,546.51c0-2.29-0.88-4.1-2.64-5.44c-1.76-1.34-4.6-2.01-8.52-2.01h-17.44v15.09h17.93c3.33,0,5.94-0.6,7.84-1.81
			c1.89-1.21,2.84-3.09,2.84-5.63V546.51z"/>
	</g>
</g>
</svg>
